<?xml version="1.0" standalone="no"?>
<!DOCTYPE svg PUBLIC "-//W3C//DTD SVG 20010904//EN"
 "http://www.w3.org/TR/2001/REC-SVG-20010904/DTD/svg10.dtd">
<svg version="1.0" xmlns="http://www.w3.org/2000/svg"
 width="1080.000000pt" height="1080.000000pt" viewBox="0 0 1080.000000 1080.000000"
 preserveAspectRatio="xMidYMid meet">

<g transform="translate(0.000000,1080.000000) scale(0.100000,-0.100000)"
fill="#000000" stroke="none">
<path d="M8327 8649 c7 -7 15 -10 18 -7 3 3 -2 9 -12 12 -14 6 -15 5 -6 -5z"/>
<path d="M8390 8616 c0 -2 8 -10 18 -17 15 -13 16 -12 3 4 -13 16 -21 21 -21
13z"/>
<path d="M9040 8579 c-36 -10 -132 -37 -215 -60 -144 -39 -194 -59 -148 -59
19 0 354 86 431 111 34 11 44 29 15 28 -10 0 -47 -9 -83 -20z"/>
<path d="M8175 8455 c-141 -25 -351 -107 -469 -183 -251 -161 -426 -371 -585
-703 -61 -128 -84 -159 -119 -159 -71 0 -92 -26 -111 -132 -13 -70 -36 -119
-62 -125 -10 -3 -19 -9 -19 -13 0 -8 -30 -4 -60 8 -8 3 -17 6 -20 6 -16 4 -74
55 -85 76 l-13 25 -11 -29 c-16 -42 -85 -317 -126 -506 -19 -91 -53 -244 -75
-340 -75 -327 -70 -228 -71 -1450 0 -729 -4 -1097 -10 -1081 -10 26 -18 743
-19 1673 l-1 527 35 173 c19 95 36 189 39 208 5 40 27 136 68 290 62 237 74
341 43 366 -18 15 -18 15 4 9 16 -5 22 -2 22 8 0 9 -6 17 -12 20 -9 3 -7 10 7
21 19 15 19 17 2 27 -13 7 -15 15 -7 28 9 18 4 31 -12 31 -5 0 -7 -4 -4 -8 3
-5 1 -22 -4 -38 -7 -26 -8 -27 -9 -5 -1 13 -9 30 -18 37 -17 13 -17 14 1 7 17
-6 18 -3 13 25 -6 31 6 46 16 20 2 -8 8 -9 13 -4 5 5 4 11 -3 13 -15 6 -17 39
-3 48 6 3 10 12 9 18 0 9 -2 9 -6 0 -2 -7 -11 -13 -19 -13 -8 0 -14 -5 -14
-11 0 -5 -6 -7 -12 -3 -7 4 -10 4 -6 -1 4 -4 3 -14 -3 -22 -12 -14 -30 -18
-28 -5 4 21 -2 42 -12 42 -6 0 -9 -9 -6 -20 3 -11 1 -22 -3 -25 -17 -10 -39 8
-45 36 -4 16 -11 29 -16 29 -5 0 -9 6 -9 13 0 7 -11 19 -24 27 -20 13 -22 19
-13 40 21 52 26 94 10 95 -25 0 -25 15 1 15 23 0 26 3 21 20 -5 17 -2 20 22
21 15 0 22 3 16 6 -18 7 -16 33 2 33 12 0 13 4 7 18 -11 19 2 62 18 62 5 0 10
7 10 15 0 17 16 20 25 5 3 -5 11 -10 17 -10 5 0 0 11 -13 24 -23 24 -24 24
-34 6 -8 -14 -14 -17 -25 -9 -13 8 -13 11 3 23 12 10 14 15 6 18 -20 7 1 30
22 25 13 -4 19 0 20 11 1 10 4 7 9 -8 7 -23 8 -23 9 -3 1 12 6 23 11 25 6 2
12 14 13 26 1 17 6 22 19 19 24 -7 23 12 -3 39 l-21 23 33 14 c61 25 87 28
102 12 9 -8 17 -11 19 -6 2 5 17 11 33 13 17 2 42 13 55 26 13 12 27 22 32 22
4 0 8 15 8 33 0 18 5 38 12 45 9 9 9 15 1 23 -8 8 -37 2 -104 -19 -78 -25
-310 -89 -434 -120 -35 -9 -31 7 -85 -277 -76 -394 -114 -545 -136 -545 -6 0
-157 154 -181 185 -14 19 -15 18 -8 -19 7 -44 62 -214 164 -506 70 -203 79
-236 62 -226 -10 7 -18 27 -145 371 -46 127 -93 250 -104 275 -10 25 -34 90
-52 145 -18 55 -55 155 -81 221 -29 74 -46 130 -42 143 4 17 1 21 -19 21 -54
0 -504 -133 -540 -160 -32 -24 -46 -25 -67 -6 -25 22 -268 146 -286 146 -9 0
-26 9 -38 20 -22 21 -68 24 -74 5 -1 -5 12 -20 30 -32 17 -12 43 -33 57 -46
36 -33 135 -107 144 -107 17 0 67 -43 59 -50 -7 -7 -451 -136 -581 -170 -53
-13 -64 -32 -87 -140 -10 -47 -35 -157 -56 -245 -21 -88 -45 -189 -52 -225
-24 -112 -116 -458 -136 -507 -21 -54 -31 -59 -42 -23 -4 14 -19 57 -34 95
-25 68 -40 110 -111 315 -38 110 -93 297 -105 355 -4 22 -24 105 -44 185 -29
114 -74 342 -75 381 0 6 -250 -61 -314 -84 -27 -10 -28 -11 -7 -18 20 -8 26
-29 22 -85 -2 -25 66 -94 131 -132 55 -32 118 -81 118 -92 0 -4 -8 -10 -17
-13 -10 -2 -85 -25 -168 -50 -82 -25 -219 -64 -303 -87 -84 -24 -159 -48 -166
-55 -10 -10 -12 -422 -9 -2041 2 -1116 1 -2039 -2 -2051 -3 -13 -12 -23 -20
-23 -8 0 -17 -11 -21 -24 -3 -14 -12 -27 -21 -30 -8 -3 -12 -10 -9 -15 3 -5 0
-14 -7 -20 -9 -7 -13 -30 -11 -71 1 -33 0 -60 -2 -60 -10 0 -91 55 -125 84
-19 17 -88 72 -153 121 -65 50 -184 142 -265 206 -80 63 -184 145 -231 182
-47 37 -92 67 -100 67 -17 -1 5 -20 184 -163 203 -161 577 -464 734 -594 42
-35 79 -63 83 -63 4 0 43 -42 86 -93 131 -152 292 -302 432 -401 31 -22 58
-43 61 -46 3 -3 48 -33 100 -65 114 -71 230 -153 247 -174 7 -8 13 -11 13 -7
0 4 14 -4 31 -18 17 -14 35 -26 40 -26 5 0 20 -9 32 -21 12 -12 34 -26 50 -31
15 -6 27 -14 27 -19 0 -5 7 -9 16 -9 17 0 44 -23 44 -37 0 -5 17 -15 38 -22
47 -18 81 -42 82 -59 0 -7 4 -11 9 -8 5 3 14 -1 21 -9 7 -8 19 -15 26 -15 8 0
14 -4 14 -10 0 -5 6 -10 14 -10 8 0 16 -6 19 -14 3 -8 19 -17 36 -21 16 -3 35
-13 42 -21 6 -8 18 -14 25 -14 8 0 19 -9 26 -20 7 -11 18 -20 24 -20 6 0 17
-7 24 -15 7 -8 16 -13 20 -10 5 3 12 0 15 -5 4 -6 18 -15 31 -20 13 -5 24 -16
24 -25 0 -8 5 -15 11 -15 5 0 7 5 4 10 -3 6 -2 10 3 10 6 0 13 -7 16 -16 3 -8
10 -13 14 -10 5 3 20 -6 33 -20 12 -13 29 -22 36 -20 7 3 13 -1 13 -9 0 -8 8
-16 18 -17 9 0 22 -2 28 -2 6 -1 24 -10 40 -21 16 -11 32 -20 36 -20 4 0 13
-9 21 -19 9 -12 26 -19 46 -19 18 0 31 -5 31 -13 0 -7 8 -10 20 -7 12 3 20 0
20 -6 0 -7 5 -9 10 -6 6 3 10 -1 10 -10 0 -9 5 -13 10 -10 6 3 10 2 10 -4 0
-6 7 -8 15 -5 11 5 13 2 9 -10 -3 -9 -1 -16 5 -16 6 0 11 5 11 11 0 5 5 7 10
4 6 -4 8 -11 5 -16 -6 -8 11 -13 42 -12 7 1 10 -3 7 -8 -3 -5 0 -9 5 -9 6 0
11 6 11 13 0 8 3 7 9 -3 6 -8 7 -18 5 -22 -3 -4 2 -8 11 -8 9 0 14 4 10 9 -3
5 -1 12 5 16 5 3 10 -3 10 -14 0 -12 7 -21 16 -21 8 0 12 5 9 10 -14 22 10 8
38 -22 17 -18 27 -25 24 -15 -4 9 -2 17 4 17 6 0 13 -9 16 -20 3 -11 9 -17 15
-14 5 3 16 0 24 -7 12 -10 13 -9 7 6 -5 15 -3 15 15 -3 12 -12 22 -26 22 -32
0 -5 4 -10 10 -10 5 0 7 7 3 16 -5 12 6 10 43 -11 30 -17 50 -23 52 -16 7 21
23 11 17 -11 -5 -18 -4 -20 4 -8 9 13 12 13 20 1 5 -8 16 -11 24 -8 9 3 21 -1
27 -9 16 -18 34 -18 27 0 -4 10 -1 13 9 9 8 -3 13 -11 10 -18 -3 -9 8 -12 40
-9 25 1 44 -2 44 -7 0 -6 7 -18 16 -27 15 -15 16 -14 10 8 -6 23 -6 23 7 8 8
-10 18 -14 22 -10 5 4 5 -1 2 -11 -5 -13 -2 -17 11 -15 9 2 20 7 24 13 4 5 10
6 14 2 4 -3 1 -14 -7 -23 -13 -16 -12 -16 9 -5 26 14 45 5 22 -9 -12 -8 -11
-10 7 -10 12 0 24 6 26 13 4 9 6 9 6 0 1 -7 6 -13 12 -13 6 0 9 7 5 15 -7 20
1 19 25 -4 12 -11 29 -17 40 -14 10 3 19 1 19 -5 0 -11 18 -11 38 2 9 5 15 1
19 -13 3 -11 9 -18 14 -15 5 3 7 10 3 15 -3 6 13 1 36 -11 39 -20 72 -20 40 0
-11 7 -9 9 8 7 13 -1 21 -6 18 -13 -5 -12 49 -28 64 -19 4 3 11 -3 14 -12 6
-15 8 -15 19 1 12 16 14 16 26 2 9 -11 19 -13 36 -6 17 6 27 5 35 -6 9 -10 9
-14 1 -14 -6 0 -11 -5 -11 -10 0 -6 10 -4 23 4 24 15 68 15 107 -1 14 -6 29
-7 34 -2 5 4 18 3 29 -3 17 -9 19 -8 14 6 -8 20 -3 20 15 2 11 -11 27 -12 73
-4 39 6 62 5 69 -2 7 -7 6 -10 -2 -10 -7 0 -12 -5 -12 -12 0 -9 3 -9 12 0 7 7
22 12 34 12 13 0 26 4 29 10 11 17 37 11 42 -10 3 -11 10 -20 15 -20 6 0 8 9
5 20 -3 11 -1 20 4 20 5 0 9 -5 9 -11 0 -5 5 -7 10 -4 6 4 8 11 5 16 -4 5 -1
9 4 9 6 0 11 -7 11 -15 0 -20 20 -19 36 3 12 16 13 16 14 0 0 -9 5 -20 12 -24
8 -5 9 -2 5 9 -6 16 3 21 31 18 6 -1 12 4 12 11 0 24 20 -16 21 -42 l1 -25 9
27 c6 16 16 25 24 22 7 -3 15 -1 19 4 3 5 28 6 56 2 28 -4 53 -3 56 2 3 4 14
4 24 -2 24 -13 78 9 73 30 -3 9 -1 11 4 5 10 -14 53 -17 53 -4 0 6 5 7 10 4 6
-4 7 -11 4 -17 -5 -8 -1 -9 10 -5 10 4 21 7 24 7 4 0 0 4 -8 10 -8 5 -11 12
-7 16 4 4 13 2 19 -4 8 -8 15 -7 24 6 8 10 13 12 14 5 0 -14 40 -18 40 -4 0
14 60 7 71 -9 9 -13 10 -13 6 1 -8 25 32 43 66 30 22 -9 29 -8 33 4 9 21 19
19 32 -7 8 -18 11 -19 11 -5 1 9 4 17 9 18 41 4 75 3 79 -3 2 -5 10 -8 16 -8
7 0 6 4 -3 10 -8 5 -12 12 -8 15 10 11 47 -5 44 -18 -1 -7 -1 -9 1 -4 3 4 9 5
14 1 5 -3 9 0 9 5 0 6 -4 11 -10 11 -5 0 -10 4 -10 10 0 5 13 7 30 3 20 -3 30
-1 30 6 0 8 5 9 19 1 25 -13 31 -13 31 1 0 5 -4 7 -10 4 -5 -3 -10 -1 -10 6 0
7 10 9 25 7 14 -3 25 -1 25 3 0 5 14 6 30 3 20 -5 30 -3 30 6 0 7 7 10 16 6
12 -5 14 -1 9 17 -6 20 -5 21 8 4 8 -9 20 -17 28 -17 10 0 10 3 1 12 -7 7 -12
16 -12 22 0 6 5 5 12 -2 16 -16 28 -15 28 3 0 8 5 15 10 15 6 0 10 -4 10 -9 0
-16 45 2 69 28 13 14 21 19 18 10 -3 -9 -1 -22 4 -30 7 -11 9 -11 9 2 0 24 30
33 44 13 10 -13 14 -13 23 -2 11 12 13 18 13 36 0 4 4 1 9 -7 13 -21 44 -24
37 -4 -5 12 -1 14 14 10 14 -3 20 0 20 10 0 15 15 15 60 1 8 -3 12 -3 8 -1
-15 8 -8 25 7 19 8 -3 15 -2 15 3 0 5 11 12 25 15 14 4 25 12 25 19 0 7 9 13
20 13 13 0 19 -5 16 -13 -3 -7 -1 -13 4 -13 6 0 10 7 10 15 0 23 31 31 42 11
5 -9 14 -14 19 -11 5 4 7 10 4 15 -3 4 2 14 11 21 13 10 17 10 25 -2 6 -10 9
-10 9 -1 0 6 9 12 20 12 11 0 23 7 26 15 4 8 11 12 16 9 6 -4 6 -9 -2 -14 -9
-5 -9 -9 -1 -14 6 -4 11 -2 11 3 0 6 7 11 15 11 8 0 14 3 14 8 -4 22 2 42 11
37 6 -3 13 1 16 9 3 9 10 13 16 10 5 -3 4 -11 -3 -20 -18 -22 7 -18 29 4 19
19 47 22 70 8 6 -4 12 -3 12 2 0 6 -7 12 -15 16 -8 3 -15 10 -15 17 0 6 7 8
15 5 9 -3 24 -1 34 6 13 8 26 8 50 0 33 -12 43 0 14 17 -23 14 -13 14 25 0 24
-8 37 -7 61 6 18 9 37 13 43 9 6 -4 21 5 35 22 12 16 23 23 23 16 0 -10 4 -9
16 3 9 9 22 14 29 11 7 -2 24 7 38 20 27 25 43 32 32 14 -3 -6 -1 -10 4 -10 6
0 11 6 11 14 0 8 10 18 23 22 12 4 26 12 30 18 6 8 10 8 14 -1 7 -18 23 -16
23 2 0 8 5 15 10 15 6 0 10 -5 10 -12 0 -9 3 -9 12 0 7 7 19 12 28 11 10 0 9
-3 -5 -9 -19 -8 -19 -9 3 -9 13 -1 22 5 22 14 0 15 17 20 54 17 12 -2 16 3 12
13 -3 8 3 19 14 25 27 14 31 13 27 -12 -2 -13 -2 -17 0 -10 3 6 16 12 29 12
22 0 23 3 14 20 -12 23 2 27 20 5 7 -8 16 -13 20 -10 5 3 11 -1 13 -7 7 -17
29 12 22 30 -2 6 0 12 5 12 6 0 10 -4 10 -8 0 -5 15 -7 33 -5 24 3 29 2 17 -6
-18 -13 -1 -14 19 -2 7 5 11 13 8 17 -5 8 21 39 33 39 3 0 4 4 2 8 -1 5 2 6 7
3 5 -3 7 -15 4 -26 -3 -11 0 -20 6 -20 6 0 11 7 11 15 0 8 5 15 11 15 5 0 7
-6 4 -12 -4 -7 2 -3 13 9 25 29 32 29 33 1 1 -20 2 -20 6 -4 7 25 48 66 68 66
8 0 15 4 15 10 0 6 9 6 24 0 19 -7 29 -4 47 11 12 10 27 19 33 19 6 0 3 -7 -6
-14 -26 -20 -22 -23 25 -22 40 1 43 3 40 26 -1 14 0 17 3 8 8 -25 28 -22 49 6
17 22 21 23 39 10 27 -18 42 -18 26 1 -7 8 -10 22 -6 30 5 13 8 14 20 3 7 -7
12 -18 9 -24 -2 -7 1 -15 8 -20 8 -5 10 -3 4 6 -5 9 -1 11 16 6 13 -3 18 -3
12 0 -7 3 -13 15 -13 26 0 20 1 20 18 5 23 -21 36 -22 28 -2 -3 8 -1 15 4 15
6 0 10 -4 10 -10 0 -12 30 -1 54 22 15 13 23 15 33 7 10 -9 13 -8 13 4 0 8 -6
18 -12 20 -8 3 -5 6 5 6 10 1 15 6 12 11 -3 6 -2 10 3 10 6 0 12 -7 16 -15 3
-8 12 -15 20 -15 9 0 13 6 10 14 -3 8 -1 17 5 21 6 3 11 -1 11 -9 0 -9 7 -16
16 -16 8 0 12 5 9 10 -11 18 17 10 35 -10 17 -19 17 -19 29 7 11 25 12 25 27
7 14 -18 15 -18 8 6 -6 22 -5 23 10 11 10 -9 16 -10 16 -2 0 6 9 11 19 11 11
0 23 4 26 10 3 5 1 10 -5 10 -6 0 -8 5 -5 10 4 7 11 7 18 2 7 -5 20 -12 29
-15 16 -6 17 70 18 1228 l0 1235 -27 5 c-16 4 -36 11 -46 16 -10 6 -28 7 -39
3 -14 -4 -18 -2 -14 5 4 6 2 12 -3 12 -26 3 -30 4 -37 12 -4 4 -22 7 -41 7
-18 0 -33 5 -33 10 0 6 -9 10 -19 10 -11 0 -22 4 -26 9 -3 5 -19 12 -35 16
-17 4 -30 11 -30 16 0 6 -4 8 -9 4 -5 -3 -12 -1 -16 5 -3 5 -19 10 -35 10 -16
0 -32 5 -35 10 -3 6 -15 10 -25 10 -10 0 -25 6 -33 14 -11 11 -17 12 -26 3 -8
-8 -11 -8 -11 3 0 7 -3 11 -6 7 -3 -3 -14 2 -25 11 -11 9 -24 18 -29 18 -6 1
-11 2 -12 4 -2 1 -16 4 -33 6 -16 3 -33 11 -37 17 -4 7 -8 8 -8 3 0 -4 -11 -1
-24 8 -14 9 -32 13 -40 10 -11 -4 -16 0 -16 11 0 9 -5 13 -10 10 -6 -4 -16 -2
-23 3 -7 5 -27 13 -44 17 -18 3 -33 10 -33 13 0 9 -49 32 -67 32 -7 0 -21 4
-31 10 -9 5 -39 19 -67 30 -27 12 -70 32 -95 44 -25 13 -72 33 -105 46 -84 31
-223 98 -270 130 -33 22 -115 60 -129 60 -3 0 -7 -8 -9 -17 -3 -10 -5 14 -4
52 2 112 -13 577 -20 615 -3 19 -5 42 -4 50 2 9 -8 3 -22 -12 -27 -29 -56 -29
-58 1 0 10 -2 11 -6 4 -8 -21 -33 -16 -26 5 6 15 4 15 -13 -2 -17 -18 -19 -18
-22 -3 -2 9 -7 17 -12 17 -17 0 -28 -28 -44 -110 -26 -130 -73 -275 -122 -376
-61 -123 -231 -350 -249 -332 -3 3 8 22 25 44 41 54 42 55 71 94 40 55 103
179 133 262 22 62 24 81 16 103 -7 18 -7 32 -1 38 5 5 7 16 4 23 -3 8 2 17 11
20 20 8 21 24 1 24 -11 0 -14 7 -11 25 4 23 -3 30 -26 26 -5 0 -8 4 -8 10 0 7
-7 17 -15 23 -9 6 -17 21 -18 34 -1 16 -6 21 -19 16 -17 -5 -20 -1 -22 36 -1
8 -7 15 -14 14 -6 -1 -21 -2 -33 -2 -18 -2 -19 -4 -5 -17 8 -8 19 -15 25 -15
6 0 11 -4 11 -10 0 -11 -32 -1 -41 12 -10 16 -58 16 -63 1 -3 -8 -10 -11 -16
-8 -6 4 -8 10 -5 15 6 10 -16 50 -27 50 -5 0 -8 -8 -8 -17 -1 -14 -4 -12 -15
7 l-13 25 -8 -30 c-6 -26 -8 -27 -15 -10 -4 11 -8 39 -8 63 -1 57 -35 155 -72
209 -40 58 -111 103 -239 153 -58 23 -125 50 -150 60 -25 11 -151 61 -280 111
-129 51 -259 108 -288 127 -76 49 -168 155 -207 237 -19 39 -45 111 -57 160
-21 84 -23 110 -22 370 1 310 14 408 76 585 30 83 124 278 170 352 43 68 153
189 243 267 159 138 322 225 530 283 l100 28 -67 -4 c-122 -7 -72 20 92 50 41
7 91 14 110 14 29 1 31 3 15 10 -29 13 -149 10 -230 -5z m-1781 -596 c-3 -5
-10 -9 -16 -9 -7 0 -7 4 1 13 13 16 5 28 -15 20 -8 -3 -14 0 -14 7 0 6 4 9 9
5 5 -3 13 0 17 7 5 7 10 4 16 -11 4 -13 6 -27 2 -32z m86 32 c0 -9 -24 -21
-40 -21 -4 0 -10 6 -13 13 -3 7 6 13 24 14 16 1 29 -2 29 -6z m-150 -41 c0 -5
-5 -10 -11 -10 -5 0 -7 5 -4 10 3 6 8 10 11 10 2 0 4 -4 4 -10z m91 3 c-8 -3
-9 -8 -3 -12 6 -4 5 -11 -4 -19 -12 -11 -13 -9 -10 10 3 13 5 24 5 26 1 1 7 2
14 1 8 0 8 -2 -2 -6z m-51 -18 c0 5 6 3 13 -4 10 -10 9 -14 -5 -22 -10 -6 -18
-17 -18 -25 0 -18 -22 -14 -28 6 -3 7 0 10 7 6 6 -4 11 -2 11 3 0 6 -5 11 -10
11 -7 0 -7 7 1 21 9 17 13 19 20 8 5 -8 9 -10 9 -4z m-57 -50 c-7 -21 -13 -19
-13 6 0 11 4 18 10 14 5 -3 7 -12 3 -20z m60 -105 c-6 -22 -33 -35 -33 -16 0
26 12 45 25 40 7 -3 11 -14 8 -24z m-1426 -186 c3 -9 -15 -91 -40 -182 -26
-92 -57 -212 -71 -267 -13 -55 -53 -215 -89 -355 -35 -140 -113 -451 -172
-690 l-107 -435 91 -265 c49 -146 149 -434 221 -640 72 -206 157 -454 189
-550 32 -96 92 -269 134 -385 80 -221 97 -277 79 -260 -11 11 -73 169 -137
355 -53 150 -198 563 -305 865 -43 121 -103 292 -134 380 -31 88 -82 227 -113
310 -30 82 -55 158 -56 170 0 32 26 145 86 370 31 116 68 266 82 335 15 69 41
179 60 245 18 66 41 156 52 200 108 442 178 715 190 737 8 15 13 33 12 40 -5
38 16 54 28 22z m1357 1 c-4 -8 -10 -15 -15 -15 -4 0 -6 7 -3 15 4 8 10 15 15
15 4 0 6 -7 3 -15z m-74 -80 c0 -8 -4 -15 -10 -15 -5 0 -7 7 -4 15 4 8 8 15
10 15 2 0 4 -7 4 -15z m79 -78 c1 -5 -6 -1 -15 7 -8 9 -12 21 -8 28 5 8 10 6
15 -8 4 -10 8 -23 8 -27z m41 -1 c0 -3 -4 -8 -10 -11 -5 -3 -10 -1 -10 4 0 6
5 11 10 11 6 0 10 -2 10 -4z m7 -68 c-3 -8 -6 -5 -6 6 -1 11 2 17 5 13 3 -3 4
-12 1 -19z m93 -12 c-7 -7 -13 -7 -20 0 -6 6 -3 10 10 10 13 0 16 -4 10 -10z
m-2910 -1259 c-1 -612 -4 -1134 -7 -1161 -5 -37 -8 -44 -15 -32 -6 11 -8 174
-6 404 1 213 2 726 0 1140 -1 414 0 757 3 763 4 5 11 7 16 3 7 -4 10 -390 9
-1117z m4045 -677 c1 -165 3 -191 23 -245 43 -116 128 -183 245 -192 99 -7
127 -13 127 -27 0 -35 -134 -48 -211 -21 -91 32 -152 105 -191 225 -16 50 -21
101 -25 225 -3 88 -8 163 -12 167 -3 4 -55 -6 -114 -21 -64 -18 -109 -25 -113
-19 -3 5 2 12 12 15 11 2 62 22 114 43 52 21 106 38 120 37 l25 -2 0 -185z
m-3620 -670 c-32 -44 -60 -80 -62 -80 -6 0 39 71 77 122 59 77 46 44 -15 -42z
m5182 -107 c-2 -21 -4 -6 -4 32 0 39 2 55 4 38 2 -18 2 -50 0 -70z m-5607
-1030 c0 -284 -3 -514 -6 -510 -8 8 -16 910 -9 975 4 28 8 52 11 52 2 0 4
-233 4 -517z m7090 -1994 c0 -6 -4 -7 -10 -4 -5 3 -10 11 -10 16 0 6 5 7 10 4
6 -3 10 -11 10 -16z m-205 -19 c3 -5 1 -10 -4 -10 -6 0 -11 5 -11 10 0 6 2 10
4 10 3 0 8 -4 11 -10z m-15 -24 c0 -11 -19 -15 -25 -6 -3 5 1 10 9 10 9 0 16
-2 16 -4z m-224 -83 c-10 -10 -19 5 -10 18 6 11 8 11 12 0 2 -7 1 -15 -2 -18z
m-449 -119 c-3 -3 -12 -4 -19 -1 -8 3 -5 6 6 6 11 1 17 -2 13 -5z m-487 -138
c0 -3 -4 -8 -10 -11 -5 -3 -10 -1 -10 4 0 6 5 11 10 11 6 0 10 -2 10 -4z
m-130 -87 c0 -14 -16 -11 -29 5 -10 12 -8 13 8 9 12 -3 21 -9 21 -14z m-60 -4
c0 -1 -7 -8 -15 -15 -13 -10 -15 -9 -15 8 0 15 5 20 15 16 8 -4 15 -7 15 -9z
m-4193 -21 c-3 -3 -12 -4 -19 -1 -8 3 -5 6 6 6 11 1 17 -2 13 -5z m3094 -337
c-13 -13 -26 -3 -16 12 3 6 11 8 17 5 6 -4 6 -10 -1 -17z m-1621 -137 c0 -5
-4 -10 -10 -10 -5 0 -10 5 -10 10 0 6 5 10 10 10 6 0 10 -4 10 -10z m640 0 c0
-5 -5 -10 -11 -10 -5 0 -7 5 -4 10 3 6 8 10 11 10 2 0 4 -4 4 -10z m144 -5
c-4 -8 -8 -15 -10 -15 -2 0 -4 7 -4 15 0 8 4 15 10 15 5 0 7 -7 4 -15z"/>
<path d="M5475 8095 c-38 -13 -103 -33 -143 -45 -67 -19 -88 -40 -41 -40 11 0
22 -7 25 -15 7 -16 264 -200 314 -224 17 -8 30 -22 30 -31 0 -9 4 -20 9 -26 5
-5 19 -40 31 -77 12 -38 24 -67 26 -64 2 2 -7 38 -21 79 -14 42 -27 93 -31
115 -3 21 -12 58 -19 83 -59 193 -85 265 -97 267 -7 1 -44 -9 -83 -22z"/>
<path d="M8177 7804 c-122 -24 -279 -102 -360 -179 -74 -70 -160 -224 -192
-344 -22 -81 -30 -233 -16 -321 14 -90 60 -188 109 -231 63 -55 211 -115 226
-91 3 5 29 8 58 5 59 -5 59 -6 -7 42 l-49 34 27 10 c14 6 31 19 37 30 6 12 16
18 25 15 9 -4 19 3 26 19 6 14 24 31 40 37 16 7 27 15 25 19 -3 4 -1 12 3 19
5 9 41 -5 125 -47 l119 -59 42 15 c39 13 43 18 47 51 1 20 1 219 -2 442 l-5
406 -26 49 c-47 93 -100 109 -252 79z"/>
<path d="M6398 7593 c7 -3 16 -2 19 1 4 3 -2 6 -13 5 -11 0 -14 -3 -6 -6z"/>
<path d="M6340 7509 c0 -5 5 -7 10 -4 6 3 10 8 10 11 0 2 -4 4 -10 4 -5 0 -10
-5 -10 -11z"/>
<path d="M6347 7474 c3 -8 11 -14 18 -14 7 0 15 6 18 14 4 9 -2 14 -18 14 -16
0 -22 -5 -18 -14z"/>
<path d="M6360 7400 c0 -5 5 -10 11 -10 5 0 7 5 4 10 -3 6 -8 10 -11 10 -2 0
-4 -4 -4 -10z"/>
<path d="M6380 7370 c0 -5 7 -7 15 -4 8 4 15 8 15 10 0 2 -7 4 -15 4 -8 0 -15
-4 -15 -10z"/>
<path d="M6370 7340 c0 -5 5 -10 11 -10 5 0 7 5 4 10 -3 6 -8 10 -11 10 -2 0
-4 -4 -4 -10z"/>
<path d="M9041 5454 c-10 -12 -10 -19 -2 -27 6 -6 11 -20 12 -31 0 -21 0 -21
8 -1 5 11 5 27 1 35 -4 8 -5 21 -3 28 6 16 1 15 -16 -4z"/>
<path d="M8740 5302 c0 -4 9 -13 20 -20 16 -10 20 -10 20 2 0 8 -7 17 -16 20
-20 8 -24 8 -24 -2z"/>
<path d="M9490 1171 c0 -6 5 -13 10 -16 6 -3 10 1 10 9 0 9 -4 16 -10 16 -5 0
-10 -4 -10 -9z"/>
<path d="M8355 780 c-3 -5 -1 -10 4 -10 6 0 11 5 11 10 0 6 -2 10 -4 10 -3 0
-8 -4 -11 -10z"/>
</g>
</svg>
